# xmcd CD database file generated by OrangeCD 6.4
#
# Track frame offsets:
#	182
#	15365
#	33740
#	51445
#	69910
#	88045
#	103177
#	123267
#	133835
#	150250
#	166922
#	186370
#
# Disc length: 2753 seconds
#
# Revision: 2
# Processed by: cddbd v1.5.2PL0 Copyright (c) Steve Scherf et al.
# Submitted via: OrangeCD 6.4
#
DISCID=9a0abf0c
DTITLE=I cugini di campagna - I grandi successi originali
DYEAR=1900
DGENRE=Blues
TTITLE0=Anima mia
TTITLE1=Brividi d'amore
TTITLE2=Conchiglia bianca
TTITLE3=Dentro l'anima
TTITLE4=Innamorata
TTITLE5=Figlia di Mary
TTITLE6=Preghiera
TTITLE7=L'uva nera
TTITLE8=Meravigliosamente
TTITLE9=No tu no
TTITLE10=Oh biancaneve
TTITLE11=E' lei
EXTD=
EXTT0=
EXTT1=
EXTT2=
EXTT3=
EXTT4=
EXTT5=
EXTT6=
EXTT7=
EXTT8=
EXTT9=
EXTT10=
EXTT11=
PLAYORDER=
